# xmcd
#
# Track frame offsets:
#	150
#	5952
#	16093
#	24001
#	39851
#	51289
#	74851
#	87564
#	98357
#	113618
#	130459
#	141882
#	154452
#
# Disc length: 2212 seconds
#
# Revision: 1
# Processed by: cddbd v1.5.2PL0 Copyright (c) Steve Scherf et al.
# Submitted via: audiograbber 1.83.01
#
DISCID=a908a20d
DTITLE=Clyde Hady - A Lifetime Of Memories Clyde Hady
DYEAR=1999
DGENRE=Country
TTITLE0=Signature Of Love
TTITLE1=Tired Of The Same Old Song
TTITLE2=Lost To The Fear
TTITLE3=We Is All I Could See
TTITLE4=Smiles From Heaven
TTITLE5=Little Eyes - Poppy
TTITLE6=First To Eternity
TTITLE7=The Kiss
TTITLE8=Paper On The Wall
TTITLE9=Filled With Tears
TTITLE10=I´m Too Old For This
TTITLE11=Tonight I Will Whisper
TTITLE12=When I First Meet Her
EXTD=
EXTT0=
EXTT1=
EXTT2=
EXTT3=
EXTT4=
EXTT5=
EXTT6=
EXTT7=
EXTT8=
EXTT9=
EXTT10=
EXTT11=
EXTT12=
PLAYORDER=
